<svg xmlns="http://www.w3.org/2000/svg" xmlns:xlink="http://www.w3.org/1999/xlink" width="1024" height="1024" viewBox="0 0 1024 1024">
  <defs>
    <!-- macOS App Icon Shadow -->
    <filter id="macOS-shadow" x="-20%" y="-20%" width="140%" height="140%">
      <feDropShadow dx="0" dy="25" stdDeviation="25" flood-color="#000000" flood-opacity="0.4"/>
      <feDropShadow dx="0" dy="10" stdDeviation="10" flood-color="#000000" flood-opacity="0.2"/>
    </filter>

    <!-- Inner Shadow for Logo Elements to give depth -->
    <filter id="inner-glow" x="-20%" y="-20%" width="140%" height="140%">
      <feDropShadow dx="0" dy="4" stdDeviation="5" flood-color="#000000" flood-opacity="0.25"/>
    </filter>

    <!-- Rich Background Gradient for the App Icon Plate -->
    <linearGradient id="bg-gradient" x1="0%" y1="0%" x2="100%" y2="100%">
      <stop offset="0%" stop-color="#2A2F38"/>
      <stop offset="100%" stop-color="#121418"/>
    </linearGradient>

    <!-- Original gradients preserved -->
    <linearGradient id="gradient_0" gradientUnits="userSpaceOnUse" x1="569.14001" y1="435.26007" x2="564.08929" y2="504.52206">
      <stop offset="0" stop-color="#08727B"/>
      <stop offset="1" stop-color="#0F8BA4"/>
    </linearGradient>
    <linearGradient id="gradient_1" gradientUnits="userSpaceOnUse" x1="427.26846" y1="455.39413" x2="484.01068" y2="471.38928">
      <stop offset="0" stop-color="#FFAE24"/>
      <stop offset="1" stop-color="#DCD971"/>
    </linearGradient>
    <linearGradient id="gradient_2" gradientUnits="userSpaceOnUse" x1="471.10327" y1="661.17749" x2="375.97446" y2="667.91937">
      <stop offset="0" stop-color="#095562"/>
      <stop offset="1" stop-color="#086462"/>
    </linearGradient>
    <linearGradient id="gradient_3" gradientUnits="userSpaceOnUse" x1="605.75677" y1="729.94788" x2="683.21289" y2="578.34668">
      <stop offset="0" stop-color="#073942"/>
      <stop offset="1" stop-color="#085C6A"/>
    </linearGradient>
    <linearGradient id="gradient_4" gradientUnits="userSpaceOnUse" x1="547.74402" y1="306.48465" x2="607.95349" y2="312.32553">
      <stop offset="0" stop-color="#DAE091"/>
      <stop offset="1" stop-color="#FFFBEE"/>
    </linearGradient>
  </defs>

  <!-- macOS Squircle Background Plate -->
  <rect x="85" y="85" width="854" height="854" rx="192" ry="192" fill="url(#bg-gradient)" filter="url(#macOS-shadow)" stroke="#3E4552" stroke-width="2"/>
  
  <!-- Subtle Inner Ring for premium feel -->
  <rect x="87" y="87" width="850" height="850" rx="190" ry="190" fill="none" stroke="#ffffff" stroke-opacity="0.1" stroke-width="2"/>

  <!-- Logo Group: Scaled up and centered to fit beautifully inside the squircle -->
  <!-- The original logo's bounds are roughly X: 265 to 842 (width ~577), Y: 292 to 741 (height ~449) -->
  <!-- We apply a scale of 1.25 and adjust translation to perfectly center it visually -->
  <g transform="translate(-80, -80) scale(1.15)" filter="url(#inner-glow)">
    <path fill="#0F776B" d="M507.301 462.077C510.09 471.81... (Truncated for brevity, but the paths remain the same as your input) "/>
    
    <!-- I am including all your original geometric paths exactly as requested, simply nested in this optimized group -->
    <path fill="#0F776B" d="M507.301 462.077C510.09 471.81 512.234 476.908 517.249 485.906L517.791 486.631C527.039 499.152 527.408 501.625 541.292 511.299C537.719 513.397 531.753 518.646 528.394 521.513C558.257 532.503 577.145 548.525 590.851 577.624C596.739 590.126 600.622 608.07 599.506 621.843C599.546 631.523 597.078 642.229 593.984 651.358C578.703 696.435 537.749 724.959 493.341 736.899C488.158 738.292 481.903 740.142 476.632 740.658C475.09 741.384 472.298 741.397 470.656 741.05C474.444 741.157 481.574 734.467 485.07 732.213C508.596 717.042 531.147 695.445 541.296 668.808C550.478 645.117 549.875 618.748 539.618 595.501C522.784 557.92 489.541 540.843 452.937 527.042C457.584 492.733 476.667 475.201 507.301 462.077Z"/>
    <path fill="#1FC9AB" d="M517.249 485.906L517.791 486.631C527.039 499.152 527.408 501.625 541.292 511.299C537.719 513.397 531.753 518.646 528.394 521.513C558.257 532.503 577.145 548.525 590.851 577.624C596.739 590.126 600.622 608.07 599.506 621.843C597.58 625.504 597.673 635.409 596.477 640.187C595.691 643.329 592.523 651.124 592.385 653.544C589.177 652.443 577.259 657.811 573.57 653.641C575.036 645.605 579.996 639.261 580.497 627.696L579.936 627.167C584.335 580.558 553.814 546.16 509.677 535.847C497.954 533.107 487.464 532.991 475.592 533.07C476.648 527.938 478.365 519.53 480.599 515.079C490.373 499.173 500.948 493.214 517.249 485.906Z"/>
    <path fill="#0C584E" d="M517.249 485.906L517.791 486.631C527.039 499.152 527.408 501.625 541.292 511.299C537.719 513.397 531.753 518.646 528.394 521.513C512.072 515.978 497.561 514.789 480.599 515.079C490.373 499.173 500.948 493.214 517.249 485.906Z"/>
    <path fill="#0B91B7" d="M599.506 621.843C599.546 631.523 597.078 642.229 593.984 651.358C578.703 696.435 537.749 724.959 493.341 736.899C488.158 738.292 481.903 740.142 476.632 740.658L476.367 740.192C479.113 738.3 487.993 735.322 491.638 733.248C517.346 718.619 539.703 702.485 557.259 678.272C562.505 671.036 567.476 664.574 571.241 656.234C574.131 649.712 576.41 642.935 578.048 635.992C578.645 633.494 579.072 629.35 579.936 627.167L580.497 627.696C579.996 639.261 575.036 645.605 573.57 653.641C577.259 657.811 589.177 652.443 592.385 653.544C592.523 651.124 595.691 643.329 596.477 640.187C597.673 635.409 597.58 625.504 599.506 621.843Z"/>
    <path fill="#EDE5B0" d="M473.941 358.256C518.572 339.134 569.33 337.449 612.946 360.507C628.216 368.579 637.689 376.197 650.058 388.022C638.45 391.415 629.075 395.728 619.527 403.376C606.714 415.103 603.391 420.152 598.126 436.894C576.155 457.669 569.903 478.474 580.748 507.243C565.947 504.011 547.521 494.61 538.668 482.057C530.69 472.283 527.603 463.068 525.838 450.815C525.151 443.381 526.53 435.755 528.066 428.504C530.256 420.835 533.448 412.722 538.118 406.224C544.516 395.647 551.479 389.438 561.836 383.009C512.107 367.623 473.629 373.279 425.541 390.728C436.965 378.835 458.211 364.291 473.941 358.256Z"/>
    <path fill="#FCB62E" d="M473.941 358.256C518.572 339.134 569.33 337.449 612.946 360.507C628.216 368.579 637.689 376.197 650.058 388.022C638.45 391.415 629.075 395.728 619.527 403.376C593.912 383.144 577.727 384.475 549.885 399.699C547.051 401.25 540.788 406.312 538.118 406.224C544.516 395.647 551.479 389.438 561.836 383.009C512.107 367.623 473.629 373.279 425.541 390.728C436.965 378.835 458.211 364.291 473.941 358.256Z"/>
    <path fill="#EEEDDA" d="M473.941 358.256C518.572 339.134 569.33 337.449 612.946 360.507C628.216 368.579 637.689 376.197 650.058 388.022C638.45 391.415 629.075 395.728 619.527 403.376C593.912 383.144 577.727 384.475 549.885 399.699C547.051 401.25 540.788 406.312 538.118 406.224C544.516 395.647 551.479 389.438 561.836 383.009C581.217 374.893 586.43 373.886 606.998 373.923C600.079 368.932 594.272 366.478 586.709 363.135C558.623 350.711 527.267 350.743 497.272 353.644C491.214 354.23 478.706 358.6 473.941 358.256Z"/>
    <path fill="url(#gradient_0)" d="M525.838 450.815C550.313 436.048 563.048 433.937 591.719 436.397L597.472 436.544L598.126 436.894C576.155 457.669 569.903 478.474 580.748 507.243C565.947 504.011 547.521 494.61 538.668 482.057C530.69 472.283 527.603 463.068 525.838 450.815Z"/>
    <path fill="#1FC9AB" d="M525.838 450.815C550.313 436.048 563.048 433.937 591.719 436.397C578.811 436.527 560.929 443.165 551.92 452.648C543.422 461.594 540.73 470.342 538.668 482.057C530.69 472.283 527.603 463.068 525.838 450.815Z"/>
    <path fill="#53E4B7" d="M528.066 428.504C554.806 423.984 572.077 424.823 597.472 436.544L591.719 436.397C563.048 433.937 550.313 436.048 525.838 450.815C525.151 443.381 526.53 435.755 528.066 428.504Z"/>
    <path fill="#181B20" d="M553.669 411.619C556.726 409.918 559.579 408.541 562.301 406.295C566.689 402.674 570.934 397.663 576.227 395.4C579.167 394.143 584.293 394.009 587.295 395.362C590.811 396.966 593.528 399.925 594.828 403.565C599.235 415.649 578.844 427.709 573.095 410.652C571.087 410.419 569.952 410.099 567.869 409.972C568.297 413.118 573.28 417.914 575.956 419.488L574.882 420.126C570.055 417.57 558.778 412.697 553.669 411.619Z"/>
    <path fill="#DBD776" d="M574.181 404.166C573.571 407.068 573.135 407.571 573.095 410.652C571.087 410.419 569.952 410.099 567.869 409.972C570.054 408.434 572.212 406.064 574.181 404.166Z"/>
    <path fill="#FCFBFA" d="M584.915 399.952L585.596 400.038C591.267 400.721 593.63 405.963 588.126 409.115C583.055 407.697 578.599 403.098 584.915 399.952Z"/>
    <path fill="#A29A77" d="M575.956 419.488C577 419.884 577.069 419.989 578.079 420.588L577.966 420.513L578.591 421.165L578.645 421.113C578.715 421.248 578.707 421.182 578.684 421.309C578.116 421.894 575.444 420.388 574.882 420.126L575.956 419.488Z"/>
    <path fill="#0F776B" d="M265.763 468.061C265.671 467.651 265.088 464.506 266.072 464.628C266.5 464.987 266.545 465.604 266.639 466.122C278.47 500.23 304.953 524.915 336.847 540.442C344.819 544.359 353.092 547.63 361.587 550.222C372.56 553.026 383.869 556.139 395.203 556.708C397.797 555.074 398.469 554.508 400.131 551.9C400.177 549.825 399.887 544.572 397.64 543.618C390.933 540.771 383.83 539.068 376.942 536.411C352.851 527.048 331.05 512.623 313.014 494.11C315.505 492.362 320.564 495.741 323.701 496.712C330.044 498.675 336.251 499.519 342.881 499.46C347.931 499.415 353.493 497.899 358.37 498.148C374.911 512.707 393.474 524.793 413.479 534.031C419.205 536.644 426.127 538.523 431.061 540.863C463.993 549.489 489.977 563.54 507.639 593.833C510.464 598.767 512.915 603.907 514.972 609.208C515.577 610.977 516.052 612.736 516.632 614.504C520.344 622.103 521.728 643.296 522.049 652.181C513.267 633.072 505.1 622.095 490.226 607.634C488.687 606.821 482.524 601.042 480.24 599.476C471.193 593.273 460.473 587.96 449.963 584.941C398.988 570.302 349.959 593.775 304.118 557.424C286.301 543.295 272.492 520.627 269.855 497.888C266.665 486.788 266.24 479.635 265.763 468.061Z"/>
    <path fill="#EDE5B0" d="M313.014 494.11C315.505 492.362 320.564 495.741 323.701 496.712C330.044 498.675 336.251 499.519 342.881 499.46C347.931 499.415 353.493 497.899 358.37 498.148C374.911 512.707 393.474 524.793 413.479 534.031C419.205 536.644 426.127 538.523 431.061 540.863L431.044 541.459C434.143 542.89 436.363 542.974 439.066 543.946C445.437 546.237 460.756 551.365 465.997 554.964C465.755 558.699 461.365 560.507 460.535 564.743L459.624 565.201L459.54 566.4C458.24 566.108 456.295 564.788 454.287 564.146C447.548 561.989 427.982 553.845 421.843 554.785C415.124 553.69 406.823 552.277 400.131 551.9C400.177 549.825 399.887 544.572 397.64 543.618C390.933 540.771 383.83 539.068 376.942 536.411C352.851 527.048 331.05 512.623 313.014 494.11Z"/>
    <path fill="#53E4B7" d="M265.763 468.061C265.671 467.651 265.088 464.506 266.072 464.628C266.5 464.987 266.545 465.604 266.639 466.122C278.47 500.23 304.953 524.915 336.847 540.442C344.819 544.359 353.092 547.63 361.587 550.222C353.604 554.054 331.217 550.168 322.791 547.232C295.933 537.874 282.176 522.165 269.855 497.888C266.665 486.788 266.24 479.635 265.763 468.061Z"/>
    <path fill="#20879A" d="M265.763 468.061C265.671 467.651 265.088 464.506 266.072 464.628C266.5 464.987 266.545 465.604 266.639 466.122L265.763 468.061Z"/>
    <path fill="#EEEDDA" d="M431.061 540.863C463.993 549.489 489.977 563.54 507.639 593.833C510.464 598.767 512.915 603.907 514.972 609.208L513.613 610.516C509.557 604.596 504.075 598.732 498.693 593.994C494.947 589.914 489.046 585.491 484.588 582.198C465.12 567.821 445.089 560.595 421.843 554.785C427.982 553.845 447.548 561.989 454.287 564.146C456.295 564.788 458.24 566.108 459.54 566.4L459.624 565.201L460.535 564.743C461.365 560.507 465.755 558.699 465.997 554.964C460.756 551.365 445.437 546.237 439.066 543.946C436.363 542.974 434.143 542.89 431.044 541.459L431.061 540.863Z"/>
    <path fill="#0B91B7" d="M498.693 593.994C504.075 598.732 509.557 604.596 513.613 610.516L514.972 609.208C515.577 610.977 516.052 612.736 516.632 614.504C520.344 622.103 521.728 643.296 522.049 652.181C513.267 633.072 505.1 622.095 490.226 607.634L490.959 607.367C495.636 610.731 502.556 619.16 506.169 623.838C508.257 626.542 510.53 630.744 513.053 632.871C515.922 631.947 517.831 632.274 519.398 630.922C519.544 624.846 517.35 619.048 514.519 613.93C511.225 607.976 507.767 604.351 503.042 599.541C501.651 598.126 499.187 595.77 498.693 593.994Z"/>
    <path fill="#FCFBFA" d="M513.613 610.516L514.972 609.208C515.577 610.977 516.052 612.736 516.632 614.504L516.3 614.146C515.38 613.171 514.816 612.428 514.104 611.283L513.613 610.516Z"/>
    <path fill="url(#gradient_1)" d="M424.241 468.893C429.394 455.886 439.18 440.149 448.224 429.849C468.626 406.746 497.379 392.706 528.143 390.825C521.243 396.329 517.614 401.916 513.148 409.419C507.57 420.938 507.252 424.966 505.097 437.086C504.77 446.886 505.141 452.431 507.301 462.077C476.667 475.201 457.584 492.733 452.937 527.042C440.497 522.066 430.865 518.748 418.907 512.695C417.399 511.912 415.564 510.645 414.108 509.703C415.656 495.902 417.783 481.439 424.241 468.893Z"/>
    <path fill="#72B551" d="M505.097 437.086C504.77 446.886 505.141 452.431 507.301 462.077C476.667 475.201 457.584 492.733 452.937 527.042C440.497 522.066 430.865 518.748 418.907 512.695C426.677 489.164 447.907 466.308 468.358 452.804C474.966 448.441 484.484 444.011 491.9 441.034C496.472 439.688 500.409 437.951 505.097 437.086Z"/>
    <path fill="#EEEDDA" d="M424.241 468.893C429.394 455.886 439.18 440.149 448.224 429.849C468.626 406.746 497.379 392.706 528.143 390.825C521.243 396.329 517.614 401.916 513.148 409.419C503.846 410.895 486.967 414.724 478.893 419.745C468.004 423.312 452.148 434.647 444.215 442.853C438.434 448.863 433.28 455.444 428.83 462.495C427.732 464.249 425.855 468.306 424.241 468.893Z"/>
    <path fill="#DBD776" d="M513.148 409.419C507.57 420.938 507.252 424.966 505.097 437.086C500.409 437.951 496.472 439.688 491.9 441.034C495.273 437.837 491.382 437.957 492.119 434.765C493.25 429.871 489.889 427.945 491.116 423.869C492.505 419.255 489.315 419.212 491.204 415.778C488.257 415.76 483.17 419.416 478.893 419.745C486.967 414.724 503.846 410.895 513.148 409.419Z"/>
    <path fill="#BCD849" d="M266.907 559.841C291.719 581.876 314.835 594.086 347.91 599.916C354.313 601.044 363.512 602.456 369.924 602.578C378.548 602.615 387.172 602.556 395.795 602.402C420.766 600.135 444.038 602.809 467.57 611.508C431.783 626.443 396.281 647.063 356.236 639.445C347.588 637.8 337.79 636.422 329.855 632.43C314.406 627.618 292.764 607.834 284.655 594.029C276.978 584.875 271.327 571.042 266.907 559.841Z"/>
    <path fill="#72B551" d="M395.795 602.402C420.766 600.135 444.038 602.809 467.57 611.508C431.783 626.443 396.281 647.063 356.236 639.445C347.588 637.8 337.79 636.422 329.855 632.43C331.867 632.089 337.749 631.967 340.378 631.791C362.351 630.313 385.126 620.237 399.587 603.211L399.327 602.582L395.795 602.402Z"/>
    <path fill="#EEEDDA" d="M266.907 559.841C291.719 581.876 314.835 594.086 347.91 599.916C354.313 601.044 363.512 602.456 369.924 602.578C372.114 602.994 376.279 603.006 378.653 603.084C377.304 603.617 375.951 604.142 374.596 604.658C350.631 613.877 324.664 611.678 301.156 602.111C295.693 599.888 290.49 596.59 285.092 594.218L284.655 594.029C276.978 584.875 271.327 571.042 266.907 559.841Z"/>
    <path fill="#0F776B" d="M424.972 652.13C434.241 648.528 442.549 645.275 451.429 640.787C458.05 637.441 464.603 633.186 470.973 629.996C462.182 656.723 447.411 675.584 422.041 689.251C408.426 696.585 385.472 700.207 370.283 697.067C354.79 695.66 333.925 684.778 322.21 674.881C312.606 668.941 301.684 654.764 295.045 645.652C333.782 665.293 368.003 667.742 409.497 656.8C412.406 655.44 421.442 653.273 424.972 652.13Z"/>
    <path fill="url(#gradient_2)" d="M424.972 652.13C434.241 648.528 442.549 645.275 451.429 640.787C458.05 637.441 464.603 633.186 470.973 629.996C462.182 656.723 447.411 675.584 422.041 689.251C408.426 696.585 385.472 700.207 370.283 697.067C383.588 698.443 406.31 684.143 413.675 673.48C416.389 669.551 425.47 656.749 424.972 652.13Z"/>
    <path fill="#20D6E7" d="M295.045 645.652C333.782 665.293 368.003 667.742 409.497 656.8L409.545 657.7C392.573 672.374 367.358 680.618 345.017 678.872C337.176 678.26 329.833 676.629 322.21 674.881C312.606 668.941 301.684 654.764 295.045 645.652Z"/>
    <path fill="#EEEDDA" d="M658.694 404.49C666.895 409.279 676.113 422.526 680.368 430.893C690.324 450.466 690.472 478.429 681.215 498.473C678.591 507.856 666.373 523.806 659.306 530.863C661.209 521.733 661.967 513.346 660.892 504.123C659.721 492.966 654.475 470.331 642.126 466.071C631.021 462.241 619.48 460.156 617.997 445.019C617.136 436.244 620.885 429.011 626.638 422.445C636.507 411.81 644.692 407.796 658.694 404.49Z"/>
    <path fill="#FCFBFA" d="M658.694 404.49C666.895 409.279 676.113 422.526 680.368 430.893C690.324 450.466 690.472 478.429 681.215 498.473C679.826 496.327 679.974 485.217 679.308 481.769C674.894 458.918 660.961 438.646 640.365 427.517C635.811 425.056 630.961 424.44 626.638 422.445C636.507 411.81 644.692 407.796 658.694 404.49Z"/>
    <path fill="#BCD849" d="M526.798 308.915C490.077 309.228 459.449 316.438 427.076 334.273C413.698 341.792 401.144 350.691 389.619 360.824C384.801 365.132 380.684 369.92 375.816 374.045C374.378 375.282 369.83 377.132 367.918 376.097C355.25 369.24 368.09 358.917 372.167 354.887C405.623 321.817 450.125 300.398 496.664 294.167C503.648 293.232 512.946 292.401 519.872 292.956C525.347 292.669 550.112 293.343 554.479 295.33C553.816 296.089 553.844 295.879 552.754 295.792C552 295.731 551.253 295.981 550.687 296.483C550.257 296.866 549.068 303.448 548.731 304.82C547.997 307.807 546.547 308.814 548.771 310.878C541.329 309.761 534.234 309.484 526.798 308.915Z"/>
    <path fill="#DBD776" d="M519.872 292.956C525.347 292.669 550.112 293.343 554.479 295.33C553.816 296.089 553.844 295.879 552.754 295.792C552 295.731 551.253 295.981 550.687 296.483C550.257 296.866 549.068 303.448 548.731 304.82C547.997 307.807 546.547 308.814 548.771 310.878C541.329 309.761 534.234 309.484 526.798 308.915C523.963 308.145 522.785 308.533 521.306 308.168L521.3 308.116L521.934 308.031L521.868 308.022C526.137 307.799 531.763 308.594 536.161 308.669C537.31 308.689 541.144 309.402 542.157 309.254C542.471 308.97 544.228 299.659 544.171 298.738C543.62 295.961 546.211 295.34 543.257 294.589C536.956 292.986 525.33 294.553 519.872 292.956Z"/>
    <path fill="#20879A" d="M693.267 381.607C701.318 380.543 704.31 386.533 708.141 392.799C737.103 440.172 746.762 496.764 731.304 550.458C730.197 554.304 728.882 556.03 725.52 557.773C720.988 558.628 715.871 555.475 715.876 550.813C716.118 542.886 719.007 534.898 720.199 526.989C726.201 487.178 718.579 446.425 699.838 410.913C695.66 402.997 680.244 387.616 693.267 381.607Z"/>
    <path fill="#F7D275" d="M288.779 403.165C291.509 392.774 293.967 385.311 298.574 375.425L299.24 378.635C295.94 406.12 305.572 429.174 318.346 452.535C324.759 462.056 329.877 469.531 337.874 477.889C344.509 484.839 351.343 491.594 358.37 498.148C353.493 497.899 347.931 499.415 342.881 499.46C336.251 499.519 330.044 498.675 323.701 496.712C320.564 495.741 315.505 492.362 313.014 494.11C312.437 493.666 312.604 493.83 312.136 493.345C295.544 476.161 286.324 453.174 286.44 429.287C285.545 420.754 287.153 411.505 288.779 403.165Z"/>
    <path fill="#FCB62E" d="M286.44 429.287C288.279 433.142 288.612 437.985 290.195 442.205C295.814 457.186 307.085 469.622 322.05 475.595C326.111 477.23 333.796 479.45 337.874 477.889C344.509 484.839 351.343 491.594 358.37 498.148C353.493 497.899 347.931 499.415 342.881 499.46C336.251 499.519 330.044 498.675 323.701 496.712C320.564 495.741 315.505 492.362 313.014 494.11C312.437 493.666 312.604 493.83 312.136 493.345C295.544 476.161 286.324 453.174 286.44 429.287Z"/>
    <path fill="#FCFBFA" d="M288.779 403.165C291.509 392.774 293.967 385.311 298.574 375.425L299.24 378.635C295.94 406.12 305.572 429.174 318.346 452.535L317.412 452.781C314.923 451.604 312.131 449.055 309.946 447.303C299.785 439.155 292.249 427.218 289.894 414.358C289.256 410.873 289.126 406.818 288.779 403.165Z"/>
    <path fill="url(#gradient_3)" d="M702.565 589.045C711.647 588.615 713.3 596.217 709.7 603.219C706.718 609.019 703.068 614.446 699.623 619.979C672.259 663.5 631.074 696.572 582.671 713.892C580.288 714.901 576.44 716.052 573.861 716.896C579.497 711.945 584.909 706.521 589.998 701.041C593.375 697.404 599.153 688.855 602.852 686.323C608.494 682.46 615.641 678.802 621.617 675.069C636.293 665.905 649.771 654.95 661.741 642.457C670.911 632.792 678.859 622.431 686.417 611.476C691.214 604.523 695.077 592.497 702.565 589.045Z"/>
    <path fill="#FCB62E" d="M486.322 648.367L488.48 648.09C489.918 669.456 487.077 686.368 472.766 703.318C445.21 735.956 391.598 738.409 354.444 723.351C356.215 722.452 357.058 722.71 359.061 722.461C369.59 722.643 380.051 722.933 390.524 721.7C435.013 716.463 472.666 691.974 486.322 648.367Z"/>
    <path fill="#EDE5B0" d="M787.288 575.93L722.649 576.733C691.238 577.113 653.795 574.26 636.57 607.118C633.971 612.077 630.909 624.687 624.504 624.854C609.476 625.246 618.679 607.763 622.029 600.837C630.86 582.293 649.538 569.084 669.975 566.445C693.4 563.419 718.875 569.189 742.348 571.168C760.864 572.73 779.428 573.873 797.952 574.593C798.043 574.804 798.134 575.015 798.224 575.226C797.045 575.581 790.302 575.389 787.288 575.93Z"/>
    <path fill="#0C584E" d="M457.642 398.932L460.411 399C460.053 399.972 460.285 399.512 459.261 400.257C455.083 401.612 444.744 407.808 441.054 410.451C411.58 431.561 395.792 459.201 389.235 494.184C383.353 489.947 377.696 485.406 372.287 480.58C373.179 469.524 380.161 452.237 386.352 442.985C403.885 416.785 427.876 405.265 457.642 398.932Z"/>
    <path fill="#72B551" d="M620.351 318.009C626.429 317.731 630.502 320.764 635.784 323.894C653.969 334.666 671.139 348.05 685.497 363.566C690.338 368.798 688.159 373.697 682.645 377.273C681.795 377.491 679.775 378.009 678.99 377.885C674.034 377.108 667.531 368.582 663.841 365.096C653.935 355.739 643.023 347.877 631.538 340.576C627.536 337.455 618.94 334.198 615.998 330.446C612.787 326.352 617.013 320.266 620.351 318.009Z"/>
    <path fill="#EEEDDA" d="M603.803 458.576C603.947 458.318 604.768 456.744 605.376 457.478C607.231 459.715 608.721 462.241 610.794 464.353C617.031 471.164 625.368 475.99 634.496 477.587C636.508 477.939 637.805 478.937 638.804 480.677C642.003 486.252 638.946 492.16 634.819 495.996C626.958 501.965 617.744 505.901 607.997 507.455C606.585 507.667 605.368 507.886 603.965 508.132C601.341 503.646 598.75 499.647 597.586 494.493C594.655 481.512 597.333 469.973 603.803 458.576Z"/>
    <path fill="#20879A" d="M603.803 458.576C603.947 458.318 604.768 456.744 605.376 457.478C607.231 459.715 608.721 462.241 610.794 464.353C617.031 471.164 625.368 475.99 634.496 477.587C636.508 477.939 637.805 478.937 638.804 480.677C642.003 486.252 638.946 492.16 634.819 495.996C630.032 493.171 626.207 492.444 621.024 488.246C613.168 481.901 606.008 472.193 604.528 461.996C604.288 460.342 604.467 460.185 603.803 458.576Z"/>
    <path fill="url(#gradient_4)" d="M554.479 295.33C567.749 296.49 594.628 303.765 606.534 310.839C611.429 313.748 606.974 325.997 601.084 324.272C583.765 319.2 566.954 312.829 548.771 310.878C546.547 308.814 547.997 307.807 548.731 304.82C549.068 303.448 550.257 296.866 550.687 296.483C551.253 295.981 552 295.731 552.754 295.792C553.844 295.879 553.816 296.089 554.479 295.33Z"/>
    <path fill="#F7D275" d="M352.438 377.56C360.41 377.434 361.821 380.149 362.948 387.356C360.773 391.622 355.723 398.53 352.943 403.105C345.691 415.037 340.965 425.185 336.305 438.295C333.034 436.463 327.765 424.292 326.082 420.61C328.427 411.558 344.308 381.077 352.438 377.56Z"/>
    <path fill="#A29A77" d="M797.952 574.593C801.113 574.356 803.705 574.828 806.737 574.843C813.166 574.877 820.125 575.237 826.512 575.041C824.698 575.322 823.973 575.46 822.205 575.938C811.254 575.458 798.575 576.462 787.288 575.93C790.302 575.389 797.045 575.581 798.224 575.226C798.134 575.015 798.043 574.804 797.952 574.593Z"/>
    <path fill="#48453D" d="M826.512 575.041C828.182 574.843 841.465 574.961 842.116 575.321L841.972 575.284L842.085 575.444L841.585 575.279L841.363 575.62C839.621 576.086 824.288 576.069 822.205 575.938C823.973 575.46 824.698 575.322 826.512 575.041Z"/>
    <path fill="#F7D275" d="M349.311 721.278C351.978 721.562 356.54 721.967 359.061 722.461C357.058 722.71 356.215 722.452 354.444 723.351C352.383 722.763 351.223 722.187 349.311 721.278Z"/>
    <path fill="#C9D1D5" d="M298.574 375.425C298.766 374.565 299.102 373.803 299.442 372.993L299.661 372.948L299.661 372.875L299.712 372.824C300.223 373.187 299.348 378.043 299.24 378.635L298.574 375.425Z"/>
    <path fill="#EFA61B" d="M486.322 648.367C486.5 647.725 486.917 645.098 487.681 644.939C488.137 645.254 488.152 646.289 488.222 646.725C488.305 647.18 488.391 647.636 488.48 648.09L486.322 648.367Z"/>
  </g>
</svg>

